<mxfile host="app.diagrams.net" agent="Mozilla/5.0 (Windows NT 10.0; Win64; x64) AppleWebKit/537.36 (KHTML, like Gecko) Chrome/131.0.0.0 Safari/537.36 Edg/131.0.0.0" version="26.0.1">
  <diagram name="Seite-1" id="XYva5ccXzgcwvR6PVosl">
    <mxGraphModel dx="983" dy="521" grid="1" gridSize="10" guides="1" tooltips="1" connect="1" arrows="1" fold="1" page="1" pageScale="1" pageWidth="827" pageHeight="1169" math="0" shadow="0">
      <root>
        <mxCell id="0" />
        <mxCell id="1" parent="0" />
        <mxCell id="4SN2zTMwUm9XvNZ1KGV1-9" style="edgeStyle=orthogonalEdgeStyle;rounded=0;orthogonalLoop=1;jettySize=auto;html=1;" parent="1" source="4SN2zTMwUm9XvNZ1KGV1-1" target="4SN2zTMwUm9XvNZ1KGV1-8" edge="1">
          <mxGeometry relative="1" as="geometry" />
        </mxCell>
        <mxCell id="4SN2zTMwUm9XvNZ1KGV1-1" value="test.html" style="shape=tape;whiteSpace=wrap;html=1;" parent="1" vertex="1">
          <mxGeometry x="190" y="380" width="120" height="100" as="geometry" />
        </mxCell>
        <mxCell id="4SN2zTMwUm9XvNZ1KGV1-6" value="util.js" style="shape=module;align=left;spacingLeft=20;align=center;verticalAlign=top;whiteSpace=wrap;html=1;" parent="1" vertex="1">
          <mxGeometry x="740" y="320" width="100" height="50" as="geometry" />
        </mxCell>
        <mxCell id="4SN2zTMwUm9XvNZ1KGV1-14" style="edgeStyle=orthogonalEdgeStyle;rounded=0;orthogonalLoop=1;jettySize=auto;html=1;" parent="1" source="4SN2zTMwUm9XvNZ1KGV1-8" target="4SN2zTMwUm9XvNZ1KGV1-13" edge="1">
          <mxGeometry relative="1" as="geometry">
            <Array as="points">
              <mxPoint x="510" y="430" />
              <mxPoint x="510" y="505" />
            </Array>
          </mxGeometry>
        </mxCell>
        <mxCell id="4SN2zTMwUm9XvNZ1KGV1-15" style="edgeStyle=orthogonalEdgeStyle;rounded=0;orthogonalLoop=1;jettySize=auto;html=1;" parent="1" source="4SN2zTMwUm9XvNZ1KGV1-8" target="4SN2zTMwUm9XvNZ1KGV1-12" edge="1">
          <mxGeometry relative="1" as="geometry">
            <Array as="points">
              <mxPoint x="510" y="430" />
              <mxPoint x="510" y="345" />
            </Array>
          </mxGeometry>
        </mxCell>
        <mxCell id="4SN2zTMwUm9XvNZ1KGV1-8" value="testrunner.js" style="rounded=0;whiteSpace=wrap;html=1;" parent="1" vertex="1">
          <mxGeometry x="370" y="400" width="120" height="60" as="geometry" />
        </mxCell>
        <mxCell id="4SN2zTMwUm9XvNZ1KGV1-11" value="WaveFileWrapper.js" style="rounded=0;whiteSpace=wrap;html=1;" parent="1" vertex="1">
          <mxGeometry x="840" y="410" width="150" height="50" as="geometry" />
        </mxCell>
        <mxCell id="7cRabWLVXFXRQCckqvhD-6" style="edgeStyle=orthogonalEdgeStyle;rounded=0;orthogonalLoop=1;jettySize=auto;html=1;" edge="1" parent="1" source="4SN2zTMwUm9XvNZ1KGV1-12" target="4SN2zTMwUm9XvNZ1KGV1-6">
          <mxGeometry relative="1" as="geometry" />
        </mxCell>
        <mxCell id="4SN2zTMwUm9XvNZ1KGV1-12" value="utiltest.js" style="shape=module;align=left;spacingLeft=20;align=center;verticalAlign=top;whiteSpace=wrap;html=1;" parent="1" vertex="1">
          <mxGeometry x="530" y="320" width="170" height="50" as="geometry" />
        </mxCell>
        <mxCell id="4SN2zTMwUm9XvNZ1KGV1-16" style="edgeStyle=orthogonalEdgeStyle;rounded=0;orthogonalLoop=1;jettySize=auto;html=1;" parent="1" source="4SN2zTMwUm9XvNZ1KGV1-13" target="4SN2zTMwUm9XvNZ1KGV1-11" edge="1">
          <mxGeometry relative="1" as="geometry">
            <Array as="points">
              <mxPoint x="880" y="505" />
            </Array>
          </mxGeometry>
        </mxCell>
        <mxCell id="4SN2zTMwUm9XvNZ1KGV1-17" style="edgeStyle=orthogonalEdgeStyle;rounded=0;orthogonalLoop=1;jettySize=auto;html=1;" parent="1" source="4SN2zTMwUm9XvNZ1KGV1-13" target="4SN2zTMwUm9XvNZ1KGV1-6" edge="1">
          <mxGeometry relative="1" as="geometry">
            <Array as="points">
              <mxPoint x="800" y="490" />
            </Array>
          </mxGeometry>
        </mxCell>
        <mxCell id="4SN2zTMwUm9XvNZ1KGV1-13" value="wavefilewrappertest.js" style="shape=module;align=left;spacingLeft=20;align=center;verticalAlign=top;whiteSpace=wrap;html=1;" parent="1" vertex="1">
          <mxGeometry x="530" y="480" width="170" height="50" as="geometry" />
        </mxCell>
        <mxCell id="7cRabWLVXFXRQCckqvhD-7" style="edgeStyle=orthogonalEdgeStyle;rounded=0;orthogonalLoop=1;jettySize=auto;html=1;" edge="1" parent="1" source="7cRabWLVXFXRQCckqvhD-1" target="4SN2zTMwUm9XvNZ1KGV1-6">
          <mxGeometry relative="1" as="geometry">
            <Array as="points">
              <mxPoint x="780" y="435" />
            </Array>
          </mxGeometry>
        </mxCell>
        <mxCell id="7cRabWLVXFXRQCckqvhD-8" style="edgeStyle=orthogonalEdgeStyle;rounded=0;orthogonalLoop=1;jettySize=auto;html=1;" edge="1" parent="1" source="7cRabWLVXFXRQCckqvhD-1" target="4SN2zTMwUm9XvNZ1KGV1-11">
          <mxGeometry relative="1" as="geometry">
            <Array as="points">
              <mxPoint x="770" y="450" />
              <mxPoint x="770" y="450" />
            </Array>
          </mxGeometry>
        </mxCell>
        <mxCell id="7cRabWLVXFXRQCckqvhD-1" value="audioprocessingtest.js" style="shape=module;align=left;spacingLeft=20;align=center;verticalAlign=top;whiteSpace=wrap;html=1;" vertex="1" parent="1">
          <mxGeometry x="532.5" y="410" width="167.5" height="50" as="geometry" />
        </mxCell>
        <mxCell id="7cRabWLVXFXRQCckqvhD-2" style="edgeStyle=orthogonalEdgeStyle;rounded=0;orthogonalLoop=1;jettySize=auto;html=1;" edge="1" parent="1" source="4SN2zTMwUm9XvNZ1KGV1-8" target="7cRabWLVXFXRQCckqvhD-1">
          <mxGeometry relative="1" as="geometry">
            <Array as="points">
              <mxPoint x="570" y="430" />
              <mxPoint x="570" y="430" />
            </Array>
            <mxPoint x="500" y="440" as="sourcePoint" />
            <mxPoint x="580" y="355" as="targetPoint" />
          </mxGeometry>
        </mxCell>
      </root>
    </mxGraphModel>
  </diagram>
</mxfile>
